<svg width="320" height="53" viewBox="0 0 320 53" fill="none" xmlns="http://www.w3.org/2000/svg">
<mask id="mask0_210_84" style="mask-type:luminance" maskUnits="userSpaceOnUse" x="50" y="22" width="48" height="31">
<path d="M50.6261 22.5645H97.3969V52.4186H50.6261V22.5645Z" fill="white"/>
</mask>
<g mask="url(#mask0_210_84)">
<path d="M73.8917 22.5645C61.0428 22.5645 50.6261 32.9863 50.6261 45.8353C50.6261 58.6842 61.0428 69.1009 73.8917 69.1009C86.7459 69.1009 97.1626 58.6842 97.1626 45.8353C97.1626 32.9863 86.7459 22.5645 73.8917 22.5645ZM73.8917 61.3457C65.3292 61.3457 58.3813 54.3978 58.3813 45.8353C58.3813 37.2676 65.3292 30.3249 73.8917 30.3249C82.4594 30.3249 89.4073 37.2676 89.4073 45.8353C89.4073 54.3978 82.4594 61.3457 73.8917 61.3457Z" fill="#F5ECE4"/>
</g>
<path d="M139.982 38.9289C141.035 41.5018 142.087 43.5487 143.128 45.0747C144.17 46.606 145.347 47.7153 146.67 48.408C148.003 49.106 149.613 49.4497 151.503 49.4497V50.6372C147.472 50.6372 143.982 50.3664 141.024 49.8247C138.066 49.283 135.597 48.2101 133.628 46.5955C131.654 44.9705 130.128 42.5695 129.045 39.3872C127.904 35.9445 126.8 33.3768 125.732 31.6789C124.66 29.9862 123.451 28.8455 122.107 28.2622C120.774 27.6685 119.097 27.3664 117.087 27.3664H115.712V37.1789C115.712 39.1112 115.732 40.7935 115.774 42.2205C115.816 43.6372 115.884 45.0018 115.982 46.3039C116.092 47.5955 116.232 49.0435 116.399 50.6372H104.441C104.607 49.0435 104.743 47.5955 104.857 46.3039C104.967 45.0018 105.045 43.6372 105.087 42.2205C105.128 40.7935 105.149 39.1112 105.149 37.1789V13.783C105.149 11.8143 105.128 10.1268 105.087 8.72054C105.045 7.3195 104.967 5.97054 104.857 4.67887C104.743 3.37679 104.607 1.92367 104.441 0.324707H119.982C122.993 0.324707 125.863 0.512207 128.587 0.887207C131.321 1.26221 133.759 1.93929 135.899 2.90804C138.035 3.86637 139.712 5.23096 140.92 6.99137C142.139 8.757 142.753 11.0435 142.753 13.8455C142.753 16.9862 141.988 19.481 140.462 21.3247C138.93 23.1737 136.857 24.5487 134.232 25.4497C131.607 26.356 128.68 26.9289 125.462 27.1789C128.555 27.7205 131.363 28.8664 133.878 30.6164C136.389 32.356 138.425 35.1268 139.982 38.9289ZM115.712 26.0539H119.795C121.972 26.0539 123.988 25.7101 125.837 25.0122C127.68 24.3195 129.17 23.0903 130.295 21.3247C131.43 19.5643 132.003 17.0695 132.003 13.8455C132.003 10.6112 131.43 8.11637 130.295 6.36637C129.17 4.60596 127.68 3.37679 125.837 2.67887C123.988 1.98617 121.972 1.63721 119.795 1.63721H115.712V26.0539Z" fill="#F5ECE4"/>
<path d="M154.492 0.324707H166.451C166.284 1.92367 166.143 3.37679 166.034 4.67887C165.935 5.97054 165.867 7.3195 165.826 8.72054C165.784 10.1268 165.763 11.8143 165.763 13.783V37.1789C165.763 39.1112 165.784 40.7935 165.826 42.2205C165.867 43.6372 165.935 45.0018 166.034 46.3039C166.143 47.5955 166.284 49.0435 166.451 50.6372H154.492C154.659 49.0435 154.794 47.5955 154.909 46.3039C155.018 45.0018 155.096 43.6372 155.138 42.2205C155.18 40.7935 155.201 39.1112 155.201 37.1789V13.783C155.201 11.8143 155.18 10.1268 155.138 8.72054C155.096 7.3195 155.018 5.97054 154.909 4.67887C154.794 3.37679 154.659 1.92367 154.492 0.324707Z" fill="#F5ECE4"/>
<path d="M171.408 0.324707H211.033V2.65804L182.491 49.3247H194.491C196.168 49.3247 197.872 49.2518 199.595 49.0955C201.314 48.9445 203.22 48.6112 205.304 48.0955C207.398 47.5695 209.835 46.783 212.616 45.7414L210.283 50.6372H170.47V48.3039L199.095 1.63721H188.97C187.205 1.63721 185.106 1.84033 182.679 2.24137C180.247 2.64762 177.726 3.63721 175.116 5.22054L171.408 0.324707Z" fill="#F5ECE4"/>
<path d="M42.2708 13.8075V37.2033C42.2708 39.1356 42.2917 40.8179 42.3333 42.245C42.375 43.6616 42.4427 45.0262 42.5417 46.3283C42.651 47.62 42.7917 49.0679 42.9583 50.6616H31.0208C31.1875 49.0679 31.3177 47.62 31.4167 46.3283C31.526 45.0262 31.6042 43.6616 31.6458 42.245C31.6875 40.8179 31.7083 39.1356 31.7083 37.2033V26.2033H11.2708V37.2033C11.2708 39.1356 11.2917 40.8179 11.3333 42.245C11.375 43.6616 11.4427 45.0262 11.5417 46.3283C11.651 47.62 11.7917 49.0679 11.9583 50.6616H0C0.166667 49.0679 0.302084 47.62 0.416667 46.3283C0.526041 45.0262 0.604167 43.6616 0.645833 42.245C0.6875 40.8179 0.708333 39.1356 0.708333 37.2033V13.8075C0.708333 11.8387 0.6875 10.1512 0.645833 8.74495C0.604167 7.34391 0.526041 5.99495 0.416667 4.70329C0.302084 3.40121 0.166667 1.94808 0 0.349121H11.9583C11.7917 1.94808 11.651 3.40121 11.5417 4.70329C11.4427 5.99495 11.375 7.34391 11.3333 8.74495C11.2917 10.1512 11.2708 11.8387 11.2708 13.8075V24.8075H31.7083V13.8075C31.7083 11.8387 31.6875 10.1512 31.6458 8.74495C31.6042 7.34391 31.526 5.99495 31.4167 4.70329C31.3177 3.40121 31.1875 1.94808 31.0208 0.349121H42.9583C42.7917 1.94808 42.651 3.40121 42.5417 4.70329C42.4427 5.99495 42.375 7.34391 42.3333 8.74495C42.2917 10.1512 42.2708 11.8387 42.2708 13.8075Z" fill="#F5ECE4"/>
<path d="M278.205 50.3125C278.372 48.7188 278.507 47.2708 278.622 45.9792C278.731 44.6771 278.809 43.3125 278.851 41.8958C278.892 40.4688 278.913 38.7865 278.913 36.8542V13.4583C278.913 11.4896 278.892 9.80208 278.851 8.39583C278.809 6.99479 278.731 5.64583 278.622 4.35417C278.507 3.05208 278.372 1.59896 278.205 0H290.913L317.142 47.4167L317.392 47.4792V13.4583C317.392 11.4896 317.372 9.80208 317.33 8.39583C317.288 6.99479 317.226 5.64583 317.142 4.35417C317.059 3.05208 316.934 1.59896 316.767 0H319.226C319.101 1.59896 318.981 3.05208 318.872 4.35417C318.773 5.64583 318.705 6.99479 318.663 8.39583C318.622 9.80208 318.601 11.4896 318.601 13.4583V36.8542C318.601 38.7865 318.622 40.4688 318.663 41.8958C318.705 43.3125 318.773 44.6771 318.872 45.9792C318.981 47.2708 319.101 48.7188 319.226 50.3125H306.58L280.288 2.89583L280.038 2.83333V36.8542C280.038 38.7865 280.059 40.4688 280.101 41.8958C280.142 43.3125 280.21 44.6771 280.309 45.9792C280.418 47.2708 280.559 48.7188 280.726 50.3125H278.205Z" fill="#F5ECE4"/>
<mask id="mask1_210_84" style="mask-type:luminance" maskUnits="userSpaceOnUse" x="50" y="1" width="48" height="18">
<path d="M50.6261 1.91309H97.3969V18.8245H50.6261V1.91309Z" fill="white"/>
</mask>
<g mask="url(#mask1_210_84)">
<path d="M73.8917 -27.7119C61.0428 -27.7119 50.6261 -17.2952 50.6261 -4.44629C50.6261 8.40267 61.0428 18.8193 73.8917 18.8193C86.7459 18.8193 97.1626 8.40267 97.1626 -4.44629C97.1626 -17.2952 86.7459 -27.7119 73.8917 -27.7119ZM73.8917 11.0641C65.3292 11.0641 58.3813 4.12142 58.3813 -4.44629C58.3813 -13.014 65.3292 -19.9567 73.8917 -19.9567C82.4594 -19.9567 89.4073 -13.014 89.4073 -4.44629C89.4073 4.12142 82.4594 11.0641 73.8917 11.0641Z" fill="#F5ECE4"/>
</g>
<mask id="mask2_210_84" style="mask-type:luminance" maskUnits="userSpaceOnUse" x="222" y="22" width="48" height="31">
<path d="M222.928 22.5645H269.694V52.4186H222.928V22.5645Z" fill="white"/>
</mask>
<g mask="url(#mask2_210_84)">
<path d="M246.194 22.5645C233.345 22.5645 222.928 32.9863 222.928 45.8353C222.928 58.6842 233.345 69.1009 246.194 69.1009C259.043 69.1009 269.459 58.6842 269.459 45.8353C269.459 32.9863 259.043 22.5645 246.194 22.5645ZM246.194 61.3457C237.626 61.3457 230.683 54.3978 230.683 45.8353C230.683 37.2676 237.626 30.3249 246.194 30.3249C254.756 30.3249 261.704 37.2676 261.704 45.8353C261.704 54.3978 254.756 61.3457 246.194 61.3457Z" fill="#F5ECE4"/>
</g>
<mask id="mask3_210_84" style="mask-type:luminance" maskUnits="userSpaceOnUse" x="222" y="1" width="48" height="18">
<path d="M222.928 1.91309H269.694V18.8245H222.928V1.91309Z" fill="white"/>
</mask>
<g mask="url(#mask3_210_84)">
<path d="M246.194 -27.7119C233.345 -27.7119 222.928 -17.2952 222.928 -4.44629C222.928 8.40267 233.345 18.8193 246.194 18.8193C259.043 18.8193 269.459 8.40267 269.459 -4.44629C269.459 -17.2952 259.043 -27.7119 246.194 -27.7119ZM246.194 11.0641C237.626 11.0641 230.683 4.12142 230.683 -4.44629C230.683 -13.014 237.626 -19.9567 246.194 -19.9567C254.756 -19.9567 261.704 -13.014 261.704 -4.44629C261.704 4.12142 254.756 11.0641 246.194 11.0641Z" fill="#F5ECE4"/>
</g>
</svg>
