<svg xmlns="http://www.w3.org/2000/svg" xmlns:xlink="http://www.w3.org/1999/xlink" width="222" zoomAndPan="magnify" viewBox="0 0 166.5 166.499994" height="222" preserveAspectRatio="xMidYMid meet" version="1.0"><defs><clipPath id="d35a26b34d"><path d="M 0 0 L 165.671875 0 L 165.671875 165.671875 L 0 165.671875 Z M 0 0 " clip-rule="nonzero"/></clipPath><clipPath id="07de7b125a"><path d="M 82.835938 0 C 37.085938 0 0 37.085938 0 82.835938 C 0 128.585938 37.085938 165.671875 82.835938 165.671875 C 128.585938 165.671875 165.671875 128.585938 165.671875 82.835938 C 165.671875 37.085938 128.585938 0 82.835938 0 Z M 82.835938 0 " clip-rule="nonzero"/></clipPath><clipPath id="94385cd838"><path d="M 36.4375 72.476562 L 129.160156 72.476562 L 129.160156 131.550781 L 36.4375 131.550781 Z M 36.4375 72.476562 " clip-rule="nonzero"/></clipPath><clipPath id="8495efa26d"><path d="M 36.4375 34.132812 L 129.160156 34.132812 L 129.160156 67.78125 L 36.4375 67.78125 Z M 36.4375 34.132812 " clip-rule="nonzero"/></clipPath></defs><g clip-path="url(#d35a26b34d)"><g clip-path="url(#07de7b125a)"><path fill="#e74504" d="M 0 0 L 165.671875 0 L 165.671875 165.671875 L 0 165.671875 Z M 0 0 " fill-opacity="1" fill-rule="nonzero"/></g></g><g clip-path="url(#94385cd838)"><path fill="#f5ece4" d="M 82.835938 72.476562 C 57.210938 72.476562 36.4375 93.25 36.4375 118.871094 C 36.4375 144.496094 57.210938 165.269531 82.835938 165.269531 C 108.457031 165.269531 129.230469 144.496094 129.230469 118.871094 C 129.230469 93.25 108.457031 72.476562 82.835938 72.476562 Z M 82.835938 149.804688 C 65.753906 149.804688 51.902344 135.953125 51.902344 118.871094 C 51.902344 101.789062 65.753906 87.941406 82.835938 87.941406 C 99.914062 87.941406 113.765625 101.789062 113.765625 118.871094 C 113.765625 135.953125 99.914062 149.804688 82.835938 149.804688 Z M 82.835938 149.804688 " fill-opacity="1" fill-rule="nonzero"/></g><g clip-path="url(#8495efa26d)"><path fill="#f5ece4" d="M 82.835938 -24.933594 C 57.210938 -24.933594 36.4375 -4.160156 36.4375 21.464844 C 36.4375 47.085938 57.210938 67.859375 82.835938 67.859375 C 108.457031 67.859375 129.230469 47.085938 129.230469 21.464844 C 129.230469 -4.160156 108.457031 -24.933594 82.835938 -24.933594 Z M 82.835938 52.394531 C 65.753906 52.394531 51.902344 38.542969 51.902344 21.464844 C 51.902344 4.382812 65.753906 -9.46875 82.835938 -9.46875 C 99.914062 -9.46875 113.765625 4.382812 113.765625 21.464844 C 113.765625 38.542969 99.914062 52.394531 82.835938 52.394531 Z M 82.835938 52.394531 " fill-opacity="1" fill-rule="nonzero"/></g></svg>